<?xml version="1.0" encoding="utf-8"?>
<!-- Generator: Adobe Illustrator 25.1.0, SVG Export Plug-In . SVG Version: 6.00 Build 0)  -->
<svg version="1.1" id="Layer_1" xmlns="http://www.w3.org/2000/svg" xmlns:xlink="http://www.w3.org/1999/xlink" x="0px" y="0px"
	 viewBox="0 0 1920 1080" style="enable-background:new 0 0 1920 1080;" xml:space="preserve">
<style type="text/css">
	.st0{fill:#ED1C24;}
</style>
<g>
	<g>
		<g>
			<g>
				<polygon class="st0" points="397.44,432 494.59,486.38 494.31,671.95 525.27,686.31 523.93,473.87 				"/>
			</g>
			<g>
				<polygon class="st0" points="571.69,650.94 570.5,422.27 416.73,422.27 542.92,450.17 541.97,645.93 				"/>
			</g>
			<g>
				<polygon class="st0" points="337.27,432 210.78,473.87 209.44,686.31 240.4,671.95 240.12,486.38 				"/>
			</g>
			<g>
				<polygon class="st0" points="317.98,422.27 164.2,422.27 163.02,650.94 192.74,645.93 191.79,450.17 				"/>
			</g>
		</g>
		<g>
			<path class="st0" d="M367.35,431.83l-111.26,66.6l0.87,205.48l83.29-66.06v-101.8h27.21l20.17-0.03v0.03h5.41v100.66l84.73,67.2
				l0.84-205.48L367.35,431.83z M374.88,502.62l0.05,21.99l-15.09,0.05l-0.03-21.99l-19.57,7.2l26.97-61.79l27.24,61.62
				L374.88,502.62z"/>
		</g>
	</g>
	<g>
		<path class="st0" d="M694.32,421.95c0-5.12,1.89-9.55,5.66-13.28c3.77-3.73,8.27-5.59,13.49-5.59c5.4,0,9.9,1.8,13.49,5.38
			c3.59,3.59,5.38,8.09,5.38,13.49c0,5.41-1.82,9.95-5.45,13.63c-3.64,3.68-8.11,5.52-13.42,5.52c-5.22,0-9.72-1.89-13.49-5.66
			C696.21,431.67,694.32,427.17,694.32,421.95z M698.37,611.81V479.27h30.34v132.54H698.37z"/>
		<path class="st0" d="M762.82,570.85l26.56-12.3c2.52,9.14,7.13,16.1,13.84,20.9c6.71,4.8,15.28,7.2,25.72,7.2
			c9.88,0,17.73-2.75,23.56-8.25c5.82-5.5,8.74-12.86,8.74-22.09c0-12.02-9.97-22.74-29.92-32.16c-2.8-1.4-4.94-2.42-6.43-3.08
			c-22.56-11-37.59-20.95-45.09-29.85c-7.5-8.9-11.25-19.78-11.25-32.64c0-16.68,5.66-30.2,16.99-40.54
			c11.32-10.35,26.17-15.52,44.53-15.52c15.1,0,27.73,2.91,37.89,8.74c10.16,5.83,17.2,14.19,21.11,25.1l-26,13.42
			c-4.1-6.43-8.6-11.14-13.49-14.12c-4.89-2.98-10.51-4.47-16.85-4.47c-8.95,0-16.06,2.33-21.32,6.99c-5.27,4.66-7.9,10.9-7.9,18.73
			c0,12.3,11.56,23.77,34.67,34.39c1.77,0.84,3.17,1.49,4.19,1.96c20.22,9.32,34.11,18.43,41.66,27.33
			c7.55,8.9,11.32,20.02,11.32,33.34c0,19.39-6.11,34.79-18.31,46.21c-12.21,11.42-28.71,17.13-49.49,17.13
			c-17.43,0-31.71-4.01-42.85-12.02C773.57,597.22,766.27,585.76,762.82,570.85z"/>
		<path class="st0" d="M936.32,611.81V505.84h-23.21v-26.56h23.21v-50.19h30.34v50.19h23.21v26.56h-23.21v105.97H936.32z"/>
		<path class="st0" d="M1045.37,479.27v74.66c0,12.86,2.66,22.09,7.97,27.68c5.31,5.59,13.93,8.39,25.86,8.39
			c11.93,0,20.55-2.8,25.86-8.39c5.31-5.59,7.97-14.82,7.97-27.68v-74.66h30.34v65.57c0,25.35-5.08,43.76-15.24,55.22
			c-10.16,11.46-26.38,17.2-48.65,17.2c-22.65,0-39.05-5.68-49.21-17.06c-10.16-11.37-15.24-29.83-15.24-55.36v-65.57H1045.37z"/>
		<path class="st0" d="M1278.71,395.11h30.34v216.7h-30.34v-17.2c-5.41,7.64-11.72,13.33-18.94,17.06
			c-7.22,3.73-15.5,5.59-24.82,5.59c-18.73,0-33.48-6.41-44.25-19.22c-10.76-12.81-16.15-30.36-16.15-52.64
			c0-21.16,5.5-38.24,16.5-51.24c11-13,25.35-19.5,43.06-19.5c10.81,0,20.06,2.26,27.75,6.78c7.69,4.52,13.3,11.02,16.85,19.5
			V395.11z M1279.55,545.12c0-13.7-3.19-24.37-9.58-32.02c-6.39-7.64-15.31-11.46-26.77-11.46s-20.48,3.94-27.05,11.81
			c-6.57,7.88-9.86,18.8-9.86,32.78c0,14.08,3.17,24.93,9.51,32.58c6.34,7.64,15.28,11.46,26.84,11.46c11,0,19.9-4.12,26.7-12.37
			C1276.15,569.66,1279.55,558.73,1279.55,545.12z"/>
		<path class="st0" d="M1373.78,674.16h-31.18l36.35-73.82l-48.65-121.07h33.55l24.33,68.64c1.4,4.19,2.63,8.46,3.71,12.79
			c1.07,4.33,1.93,8.74,2.59,13.21c1.21-4.66,4.1-12.07,8.67-22.23l0.7-1.68l32.71-70.74h32.85L1373.78,674.16z"/>
		<path class="st0" d="M1540.57,611.81V435.37h-42.36l12.86-26.28h59.84v202.72H1540.57z"/>
		<path class="st0" d="M1756.98,585.25v26.56h-137.15l76.47-91.57c9.51-11.46,16.45-21.53,20.83-30.2
			c4.38-8.67,6.57-16.54,6.57-23.63c0-10.16-3.01-18.15-9.02-23.98c-6.01-5.82-14.24-8.74-24.68-8.74c-9.32,0-17.01,2.91-23.07,8.74
			c-6.06,5.83-9.46,13.49-10.21,23h-32.02c0-18.36,6.15-33.02,18.45-43.97c12.3-10.95,28.85-16.43,49.63-16.43
			c19.76,0,35.35,5.08,46.77,15.24c11.42,10.16,17.13,24,17.13,41.52c0,12.49-3.29,25.1-9.86,37.82
			c-6.57,12.72-20.48,31.2-41.73,55.43l-26,30.2H1756.98z"/>
	</g>
	<g>
		<path d="M700.74,659.17h28.22l-0.78,4.25H716.8l-6.59,37.51h-5.45l6.59-37.51h-11.38L700.74,659.17z"/>
		<path d="M736.16,656.59h5.45l-2.88,16.24c2.76-3.42,7.19-5.33,11.8-5.33c7.31,0,12.28,4.67,10.61,14.08l-3.42,19.35h-5.39
			l3.3-18.58c1.14-6.71-1.86-10.13-7.37-10.13c-5.57,0-10.01,3.48-11.27,10.55v-0.12l-3.24,18.28h-5.45L736.16,656.59z"/>
		<path d="M780.8,701.47c-9.35,0-15.16-6.59-13.3-17.02c1.86-10.37,9.71-16.9,19.23-16.9c9.53,0,14.62,6.71,13.06,15.58
			c-0.18,1.14-0.42,2.1-0.78,3.24h-26.25c-0.84,6.71,3.18,10.49,8.87,10.49c4.91,0,8.45-2.52,10.25-6.05h5.87
			C795,696.8,788.95,701.47,780.8,701.47z M773.49,682.42h20.79c1.2-6.71-2.94-10.25-8.57-10.25
			C780.32,672.17,775.17,675.83,773.49,682.42z"/>
		<path d="M834.56,659.17l-6.65,37.57h14.62l-0.78,4.19h-20.07l7.43-41.76H834.56z"/>
		<path d="M861.7,701.47c-9.35,0-15.16-6.59-13.3-17.02c1.86-10.37,9.71-16.9,19.23-16.9c9.53,0,14.62,6.71,13.06,15.58
			c-0.18,1.14-0.42,2.1-0.78,3.24h-26.25c-0.84,6.71,3.18,10.49,8.87,10.49c4.91,0,8.45-2.52,10.25-6.05h5.87
			C875.91,696.8,869.85,701.47,861.7,701.47z M854.39,682.42h20.79c1.2-6.71-2.94-10.25-8.57-10.25
			C861.23,672.17,856.07,675.83,854.39,682.42z"/>
		<path d="M904.19,667.56c6.11,0,9.71,3.12,11.03,6.53l1.08-5.99h5.51L916,700.93h-5.51l1.14-6.11c-2.64,3.54-7.43,6.65-13.48,6.65
			c-8.75,0-14.38-6.89-12.58-17.08C887.35,674.15,895.32,667.56,904.19,667.56z M904.43,672.29c-5.99,0-11.92,4.37-13.24,12.1
			c-1.38,7.73,2.94,12.28,8.93,12.28c5.99,0,11.92-4.49,13.3-12.22C914.8,676.85,910.42,672.29,904.43,672.29z"/>
		<path d="M930.68,700.93h-5.45l5.81-32.84h5.45l-1.08,6.23c2.58-4.19,6.59-6.83,11.8-6.83l-1.02,5.63h-1.44
			c-5.21,0-9.53,2.34-10.91,9.95L930.68,700.93z"/>
		<path d="M974.91,682.36c1.14-6.71-1.86-10.13-7.37-10.13c-5.57,0-10.01,3.48-11.27,10.55v-0.12l-3.24,18.28h-5.45l5.81-32.84h5.45
			l-0.84,4.73c2.76-3.47,7.07-5.33,11.5-5.33c7.55,0,12.58,4.67,10.91,14.08L977,700.93h-5.39L974.91,682.36z"/>
		<path d="M991.75,668.1h5.45l-5.81,32.84h-5.45L991.75,668.1z M992.47,659.05c0.36-2.1,2.28-3.71,4.31-3.71
			c2.04,0,3.36,1.62,3,3.71c-0.36,2.1-2.28,3.71-4.31,3.71S992.11,661.15,992.47,659.05z"/>
		<path d="M1028,682.36c1.14-6.71-1.86-10.13-7.37-10.13c-5.57,0-10.01,3.48-11.27,10.55v-0.12l-3.24,18.28h-5.45l5.81-32.84h5.45
			l-0.84,4.73c2.76-3.47,7.07-5.33,11.5-5.33c7.55,0,12.58,4.67,10.91,14.08l-3.42,19.35h-5.39L1028,682.36z"/>
		<path d="M1058.51,667.56c5.93,0,9.77,3,11.03,6.53l1.08-5.99h5.51l-5.93,33.56c-1.62,9.05-8.81,15.46-18.4,15.46
			c-8.63,0-14.08-4.37-13.9-11.38h5.45c0.48,3.95,3.9,6.65,9.29,6.65c5.81,0,10.85-3.72,12.1-10.73l1.2-6.89
			c-2.64,3.54-7.43,6.71-13.42,6.71c-8.81,0-14.44-6.89-12.64-17.08C1041.67,674.15,1049.64,667.56,1058.51,667.56z M1058.75,672.29
			c-5.99,0-11.92,4.37-13.24,12.1c-1.38,7.73,2.94,12.28,8.93,12.28s11.92-4.49,13.3-12.22
			C1069.11,676.85,1064.74,672.29,1058.75,672.29z"/>
		<path d="M1111.66,701.35c-8.21,0-13.78-4.49-13-11.57h5.39c-0.24,3.54,2.1,7.13,7.85,7.13c5.21,0,8.63-2.34,8.87-6.59
			c0.66-10.07-19.95-6.65-19.54-19.89c0.06-7.07,5.99-11.8,14.44-11.8c8.39,0,13.12,4.61,12.82,10.73h-5.69
			c0.24-3.06-2.22-6.23-7.43-6.23c-4.91,0-8.39,2.4-8.63,6.41c-0.6,9.47,20.31,6.77,19.65,20.37
			C1126.16,696.44,1120.47,701.35,1111.66,701.35z"/>
		<path d="M1138.45,672.59h-4.19l0.78-4.49h4.25l1.44-8.27h5.51l-1.44,8.27h8.51l-0.78,4.49h-8.57l-3.42,19.35
			c-0.6,3.24,0.42,4.37,3.78,4.37h4.01l-0.84,4.61h-4.91c-5.81,0-8.69-2.4-7.55-8.99L1138.45,672.59z"/>
		<path d="M1173.56,667.56c6.11,0,9.71,3.12,11.03,6.53l1.08-5.99h5.51l-5.81,32.84h-5.51l1.14-6.11
			c-2.64,3.54-7.43,6.65-13.48,6.65c-8.75,0-14.38-6.89-12.58-17.08C1156.73,674.15,1164.7,667.56,1173.56,667.56z M1173.8,672.29
			c-5.99,0-11.92,4.37-13.24,12.1c-1.38,7.73,2.94,12.28,8.93,12.28s11.92-4.49,13.3-12.22
			C1184.17,676.85,1179.8,672.29,1173.8,672.29z"/>
		<path d="M1200.77,672.59h-4.19l0.78-4.49h4.25l1.44-8.27h5.51l-1.44,8.27h8.51l-0.78,4.49h-8.57l-3.42,19.35
			c-0.6,3.24,0.42,4.37,3.78,4.37h4.01l-0.84,4.61h-4.91c-5.81,0-8.69-2.4-7.55-8.99L1200.77,672.59z"/>
		<path d="M1222.23,668.1h5.45l-5.81,32.84h-5.45L1222.23,668.1z M1222.95,659.05c0.36-2.1,2.28-3.71,4.31-3.71
			c2.04,0,3.36,1.62,3,3.71c-0.36,2.1-2.28,3.71-4.31,3.71C1223.9,662.76,1222.59,661.15,1222.95,659.05z"/>
		<path d="M1245.6,701.47c-8.33,0-13.9-5.45-13.9-13.66c0-11.21,8.39-20.25,19.77-20.25c8.33,0,14.08,5.39,14.08,13.72
			C1265.55,692.55,1256.92,701.47,1245.6,701.47z M1246.26,696.86c7.97,0,13.66-7.25,13.66-15.28c0-6.35-4.25-9.41-9.23-9.41
			c-8.03,0-13.36,7.25-13.36,15.4C1237.33,693.74,1241.34,696.86,1246.26,696.86z"/>
		<path d="M1296.83,682.36c1.14-6.71-1.86-10.13-7.37-10.13c-5.57,0-10.01,3.48-11.27,10.55v-0.12l-3.24,18.28h-5.45l5.81-32.84
			h5.45l-0.84,4.73c2.76-3.47,7.07-5.33,11.5-5.33c7.55,0,12.58,4.67,10.91,14.08l-3.42,19.35h-5.39L1296.83,682.36z"/>
	</g>
</g>
</svg>
