<?xml version="1.0" encoding="utf-8"?>
<!-- Generator: Adobe Illustrator 25.1.0, SVG Export Plug-In . SVG Version: 6.00 Build 0)  -->
<svg version="1.1" id="Layer_1" xmlns="http://www.w3.org/2000/svg" xmlns:xlink="http://www.w3.org/1999/xlink" x="0px" y="0px"
	 viewBox="0 0 1920 1080" style="enable-background:new 0 0 1920 1080;" xml:space="preserve">
<style type="text/css">
	.st0{fill:#ED1C24;}
</style>
<g>
	<g>
		<path class="st0" d="M181.15,369.46c0-7.51,2.77-14,8.3-19.47c5.53-5.46,12.12-8.2,19.78-8.2c7.92,0,14.51,2.63,19.78,7.89
			c5.26,5.26,7.89,11.85,7.89,19.78c0,7.93-2.66,14.59-7.99,19.98c-5.33,5.4-11.89,8.1-19.67,8.1c-7.65,0-14.24-2.77-19.78-8.3
			C183.92,383.7,181.15,377.11,181.15,369.46z M187.1,647.76V453.48h44.47v194.28H187.1z"/>
		<path class="st0" d="M281.57,587.71l38.94-18.04c3.69,13.39,10.45,23.6,20.29,30.64c9.84,7.04,22.4,10.55,37.71,10.55
			c14.48,0,25.99-4.03,34.53-12.09c8.54-8.06,12.81-18.85,12.81-32.38c0-17.62-14.62-33.33-43.86-47.14
			c-4.1-2.05-7.24-3.55-9.43-4.51c-33.07-16.12-55.1-30.7-66.09-43.75c-11-13.05-16.5-29-16.5-47.85c0-24.45,8.3-44.27,24.9-59.43
			c16.6-15.17,38.35-22.75,65.27-22.75c22.13,0,40.64,4.27,55.54,12.81c14.89,8.54,25.21,20.8,30.95,36.79l-38.12,19.67
			c-6.01-9.43-12.6-16.32-19.78-20.7c-7.17-4.37-15.41-6.56-24.69-6.56c-13.12,0-23.54,3.42-31.25,10.25
			c-7.72,6.83-11.58,15.98-11.58,27.46c0,18.03,16.94,34.84,50.82,50.41c2.59,1.23,4.64,2.19,6.15,2.87
			c29.64,13.66,50,27.02,61.07,40.06c11.07,13.05,16.6,29.34,16.6,48.88c0,28.42-8.95,51-26.85,67.73
			c-17.9,16.74-42.08,25.1-72.55,25.1c-25.55,0-46.49-5.87-62.81-17.62C297.32,626.38,286.62,609.57,281.57,587.71z"/>
		<path class="st0" d="M535.89,647.76V492.42h-34.02v-38.94h34.02v-73.57h44.47v73.57h34.02v38.94h-34.02v155.34H535.89z"/>
		<path class="st0" d="M695.74,453.48v109.43c0,18.85,3.89,32.38,11.68,40.58c7.79,8.2,20.42,12.3,37.91,12.3
			c17.49,0,30.13-4.1,37.91-12.3c7.79-8.2,11.68-21.72,11.68-40.58V453.48h44.47v96.11c0,37.16-7.45,64.14-22.34,80.95
			c-14.89,16.81-38.67,25.21-71.32,25.21c-33.2,0-57.25-8.33-72.14-25c-14.89-16.67-22.34-43.72-22.34-81.15v-96.11H695.74z"/>
		<path class="st0" d="M1037.78,330.11h44.47v317.65h-44.47v-25.21c-7.92,11.2-17.18,19.54-27.77,25
			c-10.59,5.46-22.72,8.2-36.38,8.2c-27.46,0-49.08-9.39-64.86-28.18c-15.78-18.78-23.67-44.5-23.67-77.16
			c0-31.01,8.06-56.05,24.18-75.11c16.12-19.06,37.16-28.59,63.12-28.59c15.85,0,29.41,3.31,40.68,9.94
			c11.27,6.63,19.5,16.16,24.69,28.59V330.11z M1039.01,550.01c0-20.08-4.68-35.73-14.04-46.93c-9.36-11.2-22.44-16.8-39.25-16.8
			c-16.8,0-30.02,5.77-39.65,17.32c-9.63,11.55-14.45,27.56-14.45,48.06c0,20.63,4.64,36.55,13.94,47.75
			c9.29,11.2,22.4,16.8,39.35,16.8c16.12,0,29.17-6.05,39.14-18.14C1034.02,585.97,1039.01,569.96,1039.01,550.01z"/>
		<path class="st0" d="M1177.13,739.16h-45.7l53.28-108.2l-71.32-177.47h49.18l35.66,100.62c2.05,6.15,3.86,12.4,5.43,18.75
			c1.57,6.35,2.83,12.81,3.79,19.37c1.78-6.83,6.01-17.69,12.71-32.58l1.03-2.46l47.95-103.7h48.16L1177.13,739.16z"/>
		<path class="st0" d="M1421.62,647.76V389.13h-62.09l18.85-38.53h87.71v297.15H1421.62z"/>
		<path class="st0" d="M1738.85,608.82v38.94h-201.04l112.1-134.23c13.94-16.8,24.11-31.56,30.53-44.27
			c6.42-12.71,9.63-24.25,9.63-34.63c0-14.89-4.41-26.61-13.22-35.15c-8.81-8.54-20.87-12.81-36.17-12.81
			c-13.66,0-24.93,4.27-33.81,12.81c-8.88,8.54-13.87,19.78-14.96,33.71h-46.93c0-26.91,9.02-48.4,27.05-64.45
			c18.03-16.05,42.28-24.08,72.75-24.08c28.96,0,51.81,7.45,68.55,22.34c16.73,14.89,25.1,35.18,25.1,60.87
			c0,18.31-4.82,36.79-14.45,55.43c-9.63,18.65-30.02,45.74-61.17,81.26l-38.12,44.27H1738.85z"/>
	</g>
</g>
</svg>
