<svg width="24" height="20" viewBox="0 0 24 20" fill="none" xmlns="http://www.w3.org/2000/svg">
<path d="M21.8573 17.1391V0L21.2033 0.054827C18.5806 0.271624 16.0082 0.898577 13.5799 1.91309L12.4287 2.39104V19.4623L13.267 19.1139C15.7799 18.0684 18.4404 17.4216 21.1527 17.1964L21.8573 17.1391Z" fill="#003049"/>
<path d="M24.0001 2.53375H22.7144V17.5338C22.7152 17.7572 22.5438 17.9439 22.3209 17.9623L21.2234 18.0523C20.9065 18.0785 20.5905 18.1109 20.2758 18.1496C20.1737 18.162 20.0722 18.1783 19.9707 18.1925C19.7585 18.2208 19.5467 18.2494 19.3356 18.2829C19.2125 18.3026 19.0903 18.3256 18.9677 18.3472C18.7787 18.3802 18.5894 18.4131 18.4008 18.4503C18.2721 18.4761 18.1436 18.5049 18.0124 18.5328C17.8329 18.5709 17.6533 18.6098 17.475 18.6523C17.3413 18.6841 17.208 18.7178 17.0751 18.7517C16.9016 18.7946 16.729 18.8408 16.5566 18.8889C16.4224 18.9258 16.2883 18.9647 16.1546 19.004C15.9832 19.0547 15.8143 19.1062 15.645 19.1601C15.5126 19.203 15.3799 19.2459 15.2478 19.2886C15.0783 19.3458 14.9097 19.4048 14.7416 19.4657C14.6131 19.5123 14.4844 19.5592 14.353 19.6084C14.2942 19.6308 14.2358 19.6546 14.1772 19.6774H24.0001V2.53375Z" fill="#003049"/>
<path d="M2.79653 0.054827L2.14258 0V17.1403L2.90325 17.205C5.61384 17.4316 8.27211 18.0825 10.7808 19.1336L11.5711 19.4623V2.39104L10.4212 1.9135C7.99275 0.898786 5.41985 0.271624 2.79653 0.054827Z" fill="#003049"/>
<path d="M0 2.53375V19.6766H9.82973C9.77699 19.6559 9.72426 19.6337 9.67111 19.614C9.54848 19.5674 9.4248 19.5228 9.30134 19.4778C9.12723 19.4146 8.95333 19.3531 8.77797 19.2943C8.65116 19.2514 8.52392 19.2097 8.39648 19.1691C8.22259 19.112 8.04806 19.0582 7.87333 19.008C7.74463 18.9703 7.61614 18.9325 7.48765 18.8965C7.31145 18.8477 7.13483 18.8015 6.9578 18.7561C6.82931 18.723 6.70061 18.6899 6.5692 18.6592C6.38965 18.6163 6.20905 18.5769 6.02867 18.5382C5.90018 18.5104 5.77148 18.4821 5.643 18.4564C5.45612 18.4196 5.26841 18.3865 5.08071 18.3536C4.95766 18.3321 4.83461 18.3107 4.71136 18.2888C4.50419 18.2559 4.29639 18.2281 4.08859 18.2C3.98354 18.186 3.87932 18.1693 3.77448 18.1574C3.46017 18.1193 3.14586 18.0868 2.83154 18.06L1.67787 17.9623C1.45543 17.9433 1.28488 17.7568 1.28571 17.5338V2.53375H0Z" fill="#003049"/>
</svg>
