<svg width="20" height="24" viewBox="0 0 20 24" fill="none" xmlns="http://www.w3.org/2000/svg">
<rect x="0.75" y="0.75" width="17.7" height="22.5" rx="2.25" stroke="#787878" stroke-width="1.5"/>
<line x1="11.4" y1="7.6" x2="15.6" y2="7.6" stroke="#787878" stroke-width="0.8" stroke-linecap="round" stroke-linejoin="round"/>
<line x1="11.4" y1="10.6" x2="15.6" y2="10.6" stroke="#787878" stroke-width="0.8" stroke-linecap="round" stroke-linejoin="round"/>
<line x1="3.4" y1="13.6" x2="15.6" y2="13.6" stroke="#787878" stroke-width="0.8" stroke-linecap="round" stroke-linejoin="round"/>
<line x1="3.4" y1="16.6" x2="15.6" y2="16.6" stroke="#787878" stroke-width="0.8" stroke-linecap="round" stroke-linejoin="round"/>
<path d="M6.75 8.58333C6.75 8.66574 6.72556 8.7463 6.67978 8.81482C6.63399 8.88334 6.56892 8.93675 6.49278 8.96828C6.41665 8.99982 6.33287 9.00807 6.25205 8.99199C6.17122 8.97592 6.09698 8.93623 6.03871 8.87796C5.98043 8.81969 5.94075 8.74545 5.92467 8.66462C5.9086 8.5838 5.91685 8.50002 5.94838 8.42388C5.97992 8.34775 6.03333 8.28267 6.10185 8.23689C6.17037 8.1911 6.25092 8.16667 6.33333 8.16667C6.4438 8.1668 6.54971 8.21074 6.62782 8.28885C6.70593 8.36696 6.74987 8.47287 6.75 8.58333ZM9.66667 7.05556V10.9444C9.6665 11.0917 9.60792 11.2329 9.50376 11.3371C9.39961 11.4413 9.2584 11.4998 9.11111 11.5H3.55556C3.40826 11.4998 3.26705 11.4413 3.1629 11.3371C3.05875 11.2329 3.00017 11.0917 3 10.9444V7.05556C3.00017 6.90826 3.05875 6.76705 3.1629 6.6629C3.26705 6.55875 3.40826 6.50017 3.55556 6.5H4.80556V5.52778C4.80556 5.12259 4.96652 4.73399 5.25303 4.44748C5.53954 4.16096 5.92814 4 6.33333 4C6.73852 4 7.12712 4.16096 7.41364 4.44748C7.70015 4.73399 7.86111 5.12259 7.86111 5.52778V6.5H9.11111C9.2584 6.50017 9.39961 6.55875 9.50376 6.6629C9.60792 6.76705 9.6665 6.90826 9.66667 7.05556ZM7.30556 8.58333C7.30557 8.40302 7.25545 8.22626 7.16078 8.0728C7.06611 7.91934 6.93063 7.79523 6.76948 7.71434C6.60834 7.63345 6.42787 7.59896 6.24825 7.61474C6.06863 7.63052 5.89693 7.69595 5.75236 7.80369C5.60778 7.91144 5.49602 8.05728 5.42956 8.22489C5.3631 8.39251 5.34456 8.57531 5.37602 8.75285C5.40748 8.9304 5.48769 9.0957 5.60769 9.23028C5.7277 9.36486 5.88276 9.46341 6.05556 9.51493V10.1111C6.05556 10.1848 6.08482 10.2554 6.13691 10.3075C6.18901 10.3596 6.25966 10.3889 6.33333 10.3889C6.407 10.3889 6.47766 10.3596 6.52975 10.3075C6.58184 10.2554 6.61111 10.1848 6.61111 10.1111V9.51493C6.81161 9.45489 6.98742 9.33186 7.11251 9.16406C7.23759 8.99626 7.30528 8.79262 7.30556 8.58333ZM7.30556 5.52778C7.30556 5.26993 7.20312 5.02264 7.0208 4.84031C6.83847 4.65799 6.59118 4.55556 6.33333 4.55556C6.07548 4.55556 5.8282 4.65799 5.64587 4.84031C5.46354 5.02264 5.36111 5.26993 5.36111 5.52778V6.5H7.30556V5.52778Z" fill="#787878"/>
</svg>
