<svg width="20" height="24" viewBox="0 0 20 24" fill="none" xmlns="http://www.w3.org/2000/svg">
<rect x="0.75" y="0.75" width="17.7" height="22.5" rx="2.25" stroke="#787878" stroke-width="1.5"/>
<path d="M14.6252 12.2962H5.30621C5.06818 12.2962 4.875 12.1032 4.875 11.8652C4.875 11.627 5.06818 11.434 5.30621 11.434H14.625C14.8632 11.434 15.0562 11.627 15.0562 11.8652C15.0564 12.1032 14.8632 12.2962 14.6252 12.2962Z" fill="#787878"/>
<path d="M14.6252 14.5557H5.30621C5.06818 14.5557 4.875 14.3627 4.875 14.1245C4.875 13.8865 5.06818 13.6935 5.30621 13.6935H14.625C14.8632 13.6935 15.0562 13.8865 15.0562 14.1245C15.0564 14.3627 14.8632 14.5557 14.6252 14.5557Z" fill="#787878"/>
<path d="M14.6252 16.8153H5.30621C5.06818 16.8153 4.875 16.6223 4.875 16.3841C4.875 16.1461 5.06818 15.9529 5.30621 15.9529H14.625C14.8632 15.9529 15.0562 16.1461 15.0562 16.3841C15.0564 16.6223 14.8632 16.8153 14.6252 16.8153Z" fill="#787878"/>
<path d="M14.6252 19.0746H5.30621C5.06818 19.0746 4.875 18.8817 4.875 18.6436C4.875 18.4054 5.06818 18.2124 5.30621 18.2124H14.625C14.8632 18.2124 15.0562 18.4054 15.0562 18.6436C15.0564 18.8817 14.8632 19.0746 14.6252 19.0746Z" fill="#787878"/>
<path d="M3.86261 11.8651C3.86261 12.1033 3.66943 12.2963 3.4314 12.2963C3.19318 12.2963 3 12.1033 3 11.8651C3 11.6268 3.19318 11.4338 3.4314 11.4338C3.66943 11.4338 3.86261 11.6268 3.86261 11.8651Z" fill="#787878"/>
<path d="M3.86261 14.1246C3.86261 14.3628 3.66943 14.556 3.4314 14.556C3.19318 14.556 3 14.3628 3 14.1246C3 13.8865 3.19318 13.6934 3.4314 13.6934C3.66943 13.6934 3.86261 13.8865 3.86261 14.1246Z" fill="#787878"/>
<path d="M3.86261 16.3841C3.86261 16.6223 3.66943 16.8153 3.4314 16.8153C3.19318 16.8153 3 16.6223 3 16.3841C3 16.1459 3.19318 15.9529 3.4314 15.9529C3.66943 15.9529 3.86261 16.1459 3.86261 16.3841V16.3841Z" fill="#787878"/>
<path d="M3.86261 18.6436C3.86261 18.8817 3.66943 19.0748 3.4314 19.0748C3.19318 19.0748 3 18.8817 3 18.6436C3 18.4054 3.19318 18.2124 3.4314 18.2124C3.66943 18.2124 3.86261 18.4054 3.86261 18.6436V18.6436Z" fill="#787878"/>
<path d="M4.79944 8.76318V5.81152H4.03314C3.83411 5.81152 3.67261 5.65021 3.67261 5.45099C3.67261 5.25195 3.83411 5.09045 4.03314 5.09045H6.32581C6.52502 5.09045 6.68634 5.25195 6.68634 5.45099C6.68634 5.65021 6.52502 5.81152 6.32581 5.81152H5.55951V8.76318C5.55951 8.9624 5.39801 9.12372 5.19897 9.12372H5.15997C4.96094 9.12372 4.79944 8.9624 4.79944 8.76318Z" fill="#787878"/>
<path d="M10.0226 8.2959L10.2211 8.53394C10.3434 8.68079 10.3191 8.89978 10.1675 9.01605C10.0237 9.12665 9.81848 9.10321 9.70312 8.96332L9.61688 8.85876C9.35009 9.09589 9.02929 9.21417 8.65374 9.21417C8.44336 9.21417 8.24725 9.1792 8.06506 9.10962C7.88269 9.04041 7.72412 8.94281 7.58917 8.81665C7.45404 8.69104 7.34766 8.54163 7.27057 8.36877C7.19348 8.19629 7.15503 8.00659 7.15503 7.79987C7.15503 7.57465 7.21051 7.3606 7.32147 7.15753C7.43188 6.95502 7.58697 6.78198 7.78638 6.63953C7.71478 6.54175 7.65655 6.44049 7.61169 6.33502C7.56628 6.2301 7.54376 6.11914 7.54376 6.00269C7.54376 5.86371 7.5694 5.7337 7.61993 5.61121C7.67084 5.48926 7.7428 5.38342 7.83673 5.29297C7.93066 5.20325 8.04162 5.13165 8.16907 5.07892C8.29687 5.02673 8.43786 5 8.59185 5C8.8623 5 9.0791 5.06281 9.24224 5.18896C9.28729 5.22357 9.32867 5.26056 9.36657 5.30011C9.52111 5.46106 9.48156 5.72437 9.28436 5.82855L9.24902 5.84723C9.12762 5.9115 8.98425 5.87579 8.88977 5.77618C8.7962 5.67786 8.67297 5.64783 8.60266 5.64783C8.49408 5.64783 8.40747 5.67987 8.34356 5.74359C8.27984 5.80786 8.2478 5.88843 8.2478 5.98621C8.2478 6.04626 8.26117 6.1012 8.28735 6.1521C8.31353 6.203 8.34924 6.2561 8.39447 6.3125L9.60571 7.7887L9.7716 7.51862C9.86315 7.36957 10.0591 7.32416 10.2068 7.41754C10.3539 7.51038 10.3975 7.70465 10.3044 7.85132L10.0226 8.2959ZM8.68762 8.54932C8.89764 8.54932 9.07049 8.48706 9.20581 8.36328L8.18628 7.12952C8.08117 7.20844 8.00061 7.30511 7.94421 7.41974C7.88782 7.53436 7.85925 7.65173 7.85925 7.77185C7.85925 7.89215 7.88214 8.00018 7.92718 8.09558C7.97204 8.19135 8.0332 8.27338 8.11011 8.34076C8.18719 8.40814 8.27563 8.45996 8.37506 8.49567C8.47448 8.53156 8.57867 8.54932 8.68762 8.54932V8.54932Z" fill="#787878"/>
<path d="M14.2682 8.21295C14.4333 8.36951 14.4191 8.63446 14.2416 8.77673C14.1184 8.87561 13.9851 8.95856 13.8417 9.02521C13.5713 9.15082 13.269 9.21399 12.935 9.21399C12.6342 9.21399 12.3555 9.15942 12.0984 9.05029C11.8411 8.94171 11.6183 8.79321 11.4308 8.60571C11.2429 8.41766 11.0948 8.19537 10.9857 7.93774C10.8765 7.68048 10.8225 7.40363 10.8225 7.10699C10.8225 6.81036 10.8765 6.53351 10.9857 6.27588C11.0948 6.01862 11.2429 5.79633 11.4308 5.60828C11.6183 5.42078 11.8411 5.27228 12.0984 5.1637C12.3555 5.05457 12.6342 5 12.935 5C13.2576 5 13.5424 5.0564 13.7881 5.16919C13.9185 5.22888 14.0409 5.30267 14.1559 5.39056C14.3231 5.51855 14.3312 5.76886 14.1801 5.91516L14.1479 5.94629C14.0214 6.06879 13.8265 6.07391 13.6863 5.96735C13.6258 5.92139 13.5621 5.88055 13.4951 5.84485C13.3393 5.76227 13.1545 5.72107 12.9405 5.72107C12.7524 5.72107 12.5759 5.75403 12.4109 5.81958C12.2454 5.88568 12.102 5.97833 11.9799 6.09827C11.858 6.21893 11.7613 6.36432 11.6899 6.53516C11.6183 6.70618 11.5831 6.89642 11.5831 7.10699C11.5831 7.31738 11.6185 7.50763 11.6899 7.67865C11.7613 7.84967 11.8582 7.99487 11.9799 8.11499C12.102 8.23566 12.2454 8.32813 12.4109 8.39423C12.5759 8.45978 12.7524 8.49274 12.9405 8.49274C13.1655 8.49274 13.3658 8.44696 13.5405 8.35468C13.6226 8.31146 13.7002 8.25983 13.7732 8.19958C13.9195 8.07947 14.1309 8.08276 14.2682 8.21295V8.21295Z" fill="#787878"/>
</svg>
