<svg width="24" height="24" viewBox="0 0 24 24" fill="none" xmlns="http://www.w3.org/2000/svg">
<path d="M16.45 13.8778C15.7667 13.8778 15.1056 13.7667 14.4889 13.5667C14.3923 13.5339 14.2884 13.5291 14.1892 13.5526C14.0899 13.5762 13.9993 13.6273 13.9278 13.7L13.0556 14.7944C11.4833 14.0444 10.0111 12.6278 9.22778 11L10.3111 10.0778C10.4611 9.92222 10.5056 9.70556 10.4444 9.51111C10.2389 8.89444 10.1333 8.23333 10.1333 7.55C10.1333 7.25 9.88333 7 9.58333 7H7.66111C7.36111 7 7 7.13333 7 7.55C7 12.7111 11.2944 17 16.45 17C16.8444 17 17 16.65 17 16.3444V14.4278C17 14.1278 16.75 13.8778 16.45 13.8778Z" fill="#787878"/>
<circle cx="12" cy="12" r="11" stroke="#787878" stroke-width="2"/>
</svg>
