<svg width="24" height="24" viewBox="0 0 24 24" fill="none" xmlns="http://www.w3.org/2000/svg">
<circle cx="12" cy="12" r="11" stroke="#787878" stroke-width="2"/>
<path d="M15.1584 17.1212C15.121 17.2146 15.0642 17.2989 14.9915 17.3686C14.9189 17.4382 14.8322 17.4915 14.7373 17.5248C14.6424 17.5581 14.5415 17.5708 14.4413 17.5619C14.341 17.553 14.2439 17.5227 14.1564 17.4732L11.4414 15.3632L9.69936 16.9712C9.65892 17.001 9.61164 17.0202 9.56184 17.0271C9.51204 17.0339 9.46133 17.0281 9.41436 17.0102L9.74836 14.0212L9.75836 14.0302L9.76536 13.9712C9.76536 13.9712 14.6504 9.52317 14.8494 9.33417C15.0514 9.14517 14.9844 9.10417 14.9844 9.10417C14.9964 8.87417 14.6234 9.10417 14.6234 9.10417L8.15036 13.2682L5.45536 12.3502C5.45536 12.3502 5.04136 12.2022 5.00236 11.8752C4.96136 11.5512 5.46836 11.3752 5.46836 11.3752L16.1854 7.11717C16.1854 7.11717 17.0664 6.72517 17.0664 7.37517L15.1584 17.1212V17.1212Z" fill="#787878"/>
</svg>
