<svg width="24" height="25" viewBox="0 0 24 25" fill="none" xmlns="http://www.w3.org/2000/svg">
<path d="M12 0C5.37258 0 0 5.59644 0 12.5C0 19.4036 5.37258 25 12 25C18.6274 25 24 19.4036 24 12.5C24 5.59644 18.6274 0 12 0ZM12 23.4375C6.201 23.4375 1.5 18.5406 1.5 12.5C1.5 6.45937 6.201 1.5625 12 1.5625C17.799 1.5625 22.5 6.45937 22.5 12.5C22.5 18.5406 17.799 23.4375 12 23.4375Z" fill="#003049"/>
<path d="M12 14.0625C12.8284 14.0625 13.5 13.3629 13.5 12.5C13.5 11.6371 12.8284 10.9375 12 10.9375C11.1716 10.9375 10.5 11.6371 10.5 12.5C10.5 13.3629 11.1716 14.0625 12 14.0625Z" fill="#003049"/>
<path d="M17.25 14.0625C18.0784 14.0625 18.75 13.3629 18.75 12.5C18.75 11.6371 18.0784 10.9375 17.25 10.9375C16.4216 10.9375 15.75 11.6371 15.75 12.5C15.75 13.3629 16.4216 14.0625 17.25 14.0625Z" fill="#003049"/>
<path d="M6.75 14.0625C7.57843 14.0625 8.25 13.3629 8.25 12.5C8.25 11.6371 7.57843 10.9375 6.75 10.9375C5.92157 10.9375 5.25 11.6371 5.25 12.5C5.25 13.3629 5.92157 14.0625 6.75 14.0625Z" fill="#003049"/>
</svg>
