<svg width="72" height="72" viewBox="0 0 72 72" fill="none" xmlns="http://www.w3.org/2000/svg">
<path d="M36 15.4286C33.4571 15.4286 30.9713 16.1826 28.8569 17.5954C26.7426 19.0082 25.0946 21.0162 24.1215 23.3655C23.1484 25.7148 22.8938 28.3 23.3899 30.794C23.886 33.2881 25.1105 35.579 26.9086 37.3771C28.7067 39.1752 30.9976 40.3997 33.4917 40.8958C35.9857 41.3919 38.5709 41.1373 40.9202 40.1642C43.2695 39.191 45.2775 37.5431 46.6903 35.4288C48.1031 33.3144 48.8571 30.8286 48.8571 28.2857C48.8571 24.8758 47.5025 21.6055 45.0913 19.1944C42.6802 16.7832 39.4099 15.4286 36 15.4286Z" fill="url(#paint0_linear)"/>
<path d="M36 0C28.8799 0 21.9197 2.11136 15.9995 6.06709C10.0793 10.0228 5.46511 15.6453 2.74035 22.2234C0.0155982 28.8015 -0.697322 36.0399 0.691746 43.0232C2.08081 50.0066 5.50948 56.4211 10.5442 61.4558C15.5789 66.4905 21.9934 69.9192 28.9768 71.3083C35.9601 72.6973 43.1985 71.9844 49.7766 69.2597C56.3547 66.5349 61.9772 61.9207 65.9329 56.0005C69.8886 50.0803 72 43.1201 72 36C71.9891 26.4555 68.1928 17.3051 61.4438 10.5562C54.6949 3.80723 45.5445 0.0108893 36 0ZM56.5509 58.9526C56.4996 55.5797 55.1254 52.362 52.7243 49.9926C50.3233 47.6233 47.0875 46.2921 43.7143 46.2857H28.2857C24.9125 46.2921 21.6767 47.6233 19.2757 49.9926C16.8746 52.362 15.5004 55.5797 15.4492 58.9526C10.786 54.7888 7.49761 49.3068 6.0193 43.2326C4.541 37.1583 4.94256 30.7783 7.1708 24.9373C9.39904 19.0964 13.3489 14.07 18.4973 10.5237C23.6456 6.97748 29.7497 5.07864 36.0013 5.07864C42.2528 5.07864 48.3569 6.97748 53.5053 10.5237C58.6537 14.07 62.6035 19.0964 64.8318 24.9373C67.06 30.7783 67.4616 37.1583 65.9833 43.2326C64.505 49.3068 61.2166 54.7888 56.5534 58.9526H56.5509Z" fill="url(#paint1_linear)"/>
<defs>
<linearGradient id="paint0_linear" x1="36" y1="15.4286" x2="36" y2="41.1429" gradientUnits="userSpaceOnUse">
<stop stop-color="#C1FFFD"/>
<stop offset="1" stop-color="#E3B5F0"/>
</linearGradient>
<linearGradient id="paint1_linear" x1="36" y1="0" x2="36" y2="72" gradientUnits="userSpaceOnUse">
<stop stop-color="#C1FFFD"/>
<stop offset="1" stop-color="#E3B5F0"/>
</linearGradient>
</defs>
</svg>
